<svg width="317" height="96" viewBox="0 0 317 96" fill="none" xmlns="http://www.w3.org/2000/svg">
<rect y="48" width="42" height="42" fill="black"/>
<rect x="42" y="6" width="42" height="42" fill="black"/>
<circle cx="21.5" cy="68.5" r="13.5" fill="white"/>
<circle cx="21.5" cy="68.5" r="13.5" fill="white"/>
<circle cx="66.5" cy="26.5" r="13.5" fill="white"/>
<circle cx="66.5" cy="26.5" r="13.5" fill="white"/>
<circle cx="66.5" cy="68.5" r="13.5" fill="white"/>
<circle cx="66.5" cy="68.5" r="13.5" fill="black"/>
<circle cx="21.5" cy="26.5" r="13.5" fill="white"/>
<circle cx="21.5" cy="26.5" r="13.5" fill="black"/>
<rect x="81" y="6" width="3" height="84" fill="black"/>
<rect y="6" width="3" height="84" fill="black"/>
<rect y="90" width="3" height="84" transform="rotate(-90 0 90)" fill="black"/>
<rect y="9" width="3" height="84" transform="rotate(-90 0 9)" fill="black"/>
<path d="M103.048 47.344C103.048 42.9067 103.965 38.96 105.8 35.504C107.677 32.0053 110.323 29.296 113.736 27.376C117.149 25.4133 121.075 24.432 125.512 24.432C131.144 24.432 135.88 25.9467 139.72 28.976C143.56 31.9627 146.035 36.0373 147.144 41.2H133.64C132.829 39.4933 131.699 38.192 130.248 37.296C128.84 36.4 127.197 35.952 125.32 35.952C122.419 35.952 120.093 36.9973 118.344 39.088C116.637 41.136 115.784 43.888 115.784 47.344C115.784 50.8427 116.637 53.6373 118.344 55.728C120.093 57.776 122.419 58.8 125.32 58.8C127.197 58.8 128.84 58.352 130.248 57.456C131.699 56.56 132.829 55.2587 133.64 53.552H147.144C146.035 58.7147 143.56 62.8107 139.72 65.84C135.88 68.8267 131.144 70.32 125.512 70.32C121.075 70.32 117.149 69.36 113.736 67.44C110.323 65.4773 107.677 62.768 105.8 59.312C103.965 55.8133 103.048 51.824 103.048 47.344ZM169.788 70.448C166.204 70.448 162.983 69.7013 160.124 68.208C157.308 66.7147 155.089 64.5813 153.468 61.808C151.847 59.0347 151.036 55.7707 151.036 52.016C151.036 48.304 151.847 45.0613 153.468 42.288C155.132 39.5147 157.372 37.3813 160.188 35.888C163.047 34.3947 166.268 33.648 169.852 33.648C173.436 33.648 176.636 34.3947 179.452 35.888C182.311 37.3813 184.551 39.5147 186.172 42.288C187.836 45.0613 188.668 48.304 188.668 52.016C188.668 55.728 187.836 58.992 186.172 61.808C184.551 64.5813 182.311 66.7147 179.452 68.208C176.593 69.7013 173.372 70.448 169.788 70.448ZM169.788 59.568C171.537 59.568 172.988 58.928 174.14 57.648C175.335 56.3253 175.932 54.448 175.932 52.016C175.932 49.584 175.335 47.728 174.14 46.448C172.988 45.168 171.559 44.528 169.852 44.528C168.145 44.528 166.716 45.168 165.564 46.448C164.412 47.728 163.836 49.584 163.836 52.016C163.836 54.4907 164.391 56.368 165.5 57.648C166.609 58.928 168.039 59.568 169.788 59.568ZM191.724 52.016C191.724 48.304 192.385 45.0613 193.708 42.288C195.073 39.5147 196.929 37.3813 199.276 35.888C201.622 34.3947 204.225 33.648 207.083 33.648C209.388 33.648 211.436 34.1387 213.228 35.12C215.062 36.0587 216.492 37.36 217.516 39.024V22.64H230.124V70H217.516V65.008C216.534 66.672 215.148 67.9947 213.356 68.976C211.564 69.9573 209.452 70.448 207.02 70.448C204.161 70.448 201.558 69.7013 199.212 68.208C196.908 66.7147 195.073 64.5813 193.708 61.808C192.385 58.992 191.724 55.728 191.724 52.016ZM217.58 52.016C217.58 49.712 216.94 47.8987 215.66 46.576C214.422 45.2533 212.886 44.592 211.052 44.592C209.174 44.592 207.617 45.2533 206.38 46.576C205.142 47.856 204.524 49.6693 204.524 52.016C204.524 54.32 205.142 56.1547 206.38 57.52C207.617 58.8427 209.174 59.504 211.052 59.504C212.886 59.504 214.422 58.8427 215.66 57.52C216.94 56.1973 217.58 54.3627 217.58 52.016ZM271.576 51.632C271.576 52.6133 271.512 53.5947 271.384 54.576H247.64C247.768 56.5387 248.301 58.0107 249.24 58.992C250.221 59.9307 251.458 60.4 252.952 60.4C255.042 60.4 256.536 59.4613 257.432 57.584H270.808C270.253 60.0587 269.165 62.2773 267.544 64.24C265.965 66.16 263.96 67.6747 261.528 68.784C259.096 69.8933 256.408 70.448 253.464 70.448C249.922 70.448 246.765 69.7013 243.992 68.208C241.261 66.7147 239.106 64.5813 237.528 61.808C235.992 59.0347 235.224 55.7707 235.224 52.016C235.224 48.2613 235.992 45.0187 237.528 42.288C239.064 39.5147 241.197 37.3813 243.928 35.888C246.701 34.3947 249.88 33.648 253.464 33.648C257.005 33.648 260.141 34.3733 262.872 35.824C265.602 37.2747 267.736 39.3653 269.272 42.096C270.808 44.784 271.576 47.9627 271.576 51.632ZM258.776 48.496C258.776 46.96 258.264 45.7653 257.24 44.912C256.216 44.016 254.936 43.568 253.4 43.568C251.864 43.568 250.605 43.9947 249.624 44.848C248.642 45.6587 248.002 46.8747 247.704 48.496H258.776ZM274.661 52.016C274.661 48.304 275.322 45.0613 276.645 42.288C278.01 39.5147 279.866 37.3813 282.213 35.888C284.56 34.3947 287.162 33.648 290.021 33.648C292.325 33.648 294.373 34.1387 296.165 35.12C298 36.0587 299.429 37.36 300.453 39.024V22.64H313.061V70H300.453V65.008C299.472 66.672 298.085 67.9947 296.293 68.976C294.501 69.9573 292.389 70.448 289.957 70.448C287.098 70.448 284.496 69.7013 282.149 68.208C279.845 66.7147 278.01 64.5813 276.645 61.808C275.322 58.992 274.661 55.728 274.661 52.016ZM300.517 52.016C300.517 49.712 299.877 47.8987 298.597 46.576C297.36 45.2533 295.824 44.592 293.989 44.592C292.112 44.592 290.554 45.2533 289.317 46.576C288.08 47.856 287.461 49.6693 287.461 52.016C287.461 54.32 288.08 56.1547 289.317 57.52C290.554 58.8427 292.112 59.504 293.989 59.504C295.824 59.504 297.36 58.8427 298.597 57.52C299.877 56.1973 300.517 54.3627 300.517 52.016Z" fill="black"/>
</svg>
