<svg width="140" height="135" viewBox="0 0 140 135" fill="none" xmlns="http://www.w3.org/2000/svg">
<path d="M72.4982 -7.21216e-06C35.219 -7.21216e-06 4.99825 30.2208 4.99825 67.5C4.99825 104.779 35.219 135 72.4982 135C109.777 135 139.998 104.779 139.998 67.5C139.998 30.2208 109.777 -7.21216e-06 72.4982 -7.21216e-06Z" fill="#A514F4"/>
<ellipse cx="31" cy="32.5" rx="31" ry="32.5" transform="matrix(0 -1 -1 0 104.994 98)" fill="white"/>
<rect width="23" height="86" transform="matrix(-1 0 0 1 64.488 18.693)" fill="#A514F4"/>
<circle cx="22.5" cy="22.5" r="22.5" transform="matrix(0 -1 -1 0 45 90.4209)" fill="white"/>
<ellipse cx="14.5" cy="13.5" rx="14.5" ry="13.5" transform="matrix(0 -1 -1 0 97.488 81.693)" fill="black"/>
</svg>
