<svg width="376" height="135" viewBox="0 0 376 135" fill="none" xmlns="http://www.w3.org/2000/svg">
<path d="M72.4982 -7.21216e-06C35.219 -7.21216e-06 4.99825 30.2208 4.99825 67.5C4.99825 104.779 35.219 135 72.4982 135C109.777 135 139.998 104.779 139.998 67.5C139.998 30.2208 109.777 -7.21216e-06 72.4982 -7.21216e-06Z" fill="#A514F4"/>
<ellipse cx="31" cy="32.5" rx="31" ry="32.5" transform="matrix(0 -1 -1 0 104.994 98)" fill="white"/>
<rect width="23" height="86" transform="matrix(-1 0 0 1 64.488 18.693)" fill="#A514F4"/>
<circle cx="22.5" cy="22.5" r="22.5" transform="matrix(0 -1 -1 0 45 90.4209)" fill="white"/>
<ellipse cx="14.5" cy="13.5" rx="14.5" ry="13.5" transform="matrix(0 -1 -1 0 97.488 81.693)" fill="black"/>
<path d="M157.92 67.28C157.92 62.8 158.816 58.8107 160.608 55.312C162.443 51.8133 165.045 49.104 168.416 47.184C171.787 45.2213 175.755 44.24 180.32 44.24C184.245 44.24 187.744 44.9867 190.816 46.48C193.931 47.9307 196.448 50 198.368 52.688C200.331 55.376 201.632 58.512 202.272 62.096H187.296C186.613 60.6027 185.632 59.4507 184.352 58.64C183.115 57.7867 181.685 57.36 180.064 57.36C177.675 57.36 175.776 58.256 174.368 60.048C173.003 61.84 172.32 64.2507 172.32 67.28C172.32 70.3093 173.003 72.72 174.368 74.512C175.776 76.304 177.675 77.2 180.064 77.2C181.685 77.2 183.115 76.7947 184.352 75.984C185.632 75.1307 186.613 73.9573 187.296 72.464H202.272C201.632 76.048 200.331 79.184 198.368 81.872C196.448 84.56 193.931 86.6507 190.816 88.144C187.744 89.5947 184.245 90.32 180.32 90.32C175.755 90.32 171.787 89.36 168.416 87.44C165.045 85.4773 162.443 82.7467 160.608 79.248C158.816 75.7493 157.92 71.76 157.92 67.28ZM224.54 90.448C220.913 90.448 217.649 89.7013 214.748 88.208C211.846 86.7147 209.564 84.5813 207.9 81.808C206.278 78.992 205.468 75.7067 205.468 71.952C205.468 68.1973 206.278 64.9333 207.9 62.16C209.564 59.344 211.846 57.1893 214.748 55.696C217.649 54.2027 220.913 53.456 224.54 53.456C228.166 53.456 231.43 54.2027 234.332 55.696C237.233 57.1893 239.494 59.344 241.116 62.16C242.78 64.9333 243.612 68.1973 243.612 71.952C243.612 75.7067 242.78 78.992 241.116 81.808C239.494 84.5813 237.233 86.7147 234.332 88.208C231.43 89.7013 228.166 90.448 224.54 90.448ZM224.54 78.16C225.862 78.16 226.972 77.648 227.868 76.624C228.764 75.5573 229.212 74 229.212 71.952C229.212 69.904 228.764 68.368 227.868 67.344C226.972 66.2773 225.862 65.744 224.54 65.744C223.217 65.744 222.108 66.2773 221.212 67.344C220.316 68.368 219.868 69.904 219.868 71.952C219.868 74 220.294 75.5573 221.148 76.624C222.044 77.648 223.174 78.16 224.54 78.16ZM246.155 71.952C246.155 68.1547 246.795 64.8693 248.075 62.096C249.398 59.28 251.19 57.1467 253.451 55.696C255.712 54.2027 258.251 53.456 261.067 53.456C263.414 53.456 265.419 53.9467 267.083 54.928C268.79 55.8667 270.091 57.168 270.987 58.832V42.64H285.195V90H270.987V85.072C270.091 86.736 268.79 88.0587 267.083 89.04C265.419 89.9787 263.414 90.448 261.067 90.448C258.251 90.448 255.712 89.7227 253.451 88.272C251.19 86.7787 249.398 84.6453 248.075 81.872C246.795 79.056 246.155 75.7493 246.155 71.952ZM271.051 71.952C271.051 70.032 270.56 68.5387 269.579 67.472C268.598 66.4053 267.339 65.872 265.803 65.872C264.267 65.872 263.008 66.4053 262.027 67.472C261.046 68.5387 260.555 70.032 260.555 71.952C260.555 73.872 261.046 75.3653 262.027 76.432C263.008 77.4987 264.267 78.032 265.803 78.032C267.339 78.032 268.598 77.4987 269.579 76.432C270.56 75.3653 271.051 73.872 271.051 71.952ZM326.519 71.632C326.519 72.6133 326.455 73.552 326.327 74.448H303.479C303.692 77.5627 304.994 79.12 307.383 79.12C308.919 79.12 310.028 78.416 310.711 77.008H325.751C325.239 79.568 324.151 81.872 322.487 83.92C320.866 85.9253 318.796 87.5253 316.279 88.72C313.804 89.872 311.074 90.448 308.087 90.448C304.503 90.448 301.303 89.7013 298.487 88.208C295.714 86.7147 293.538 84.5813 291.959 81.808C290.423 78.992 289.655 75.7067 289.655 71.952C289.655 68.1973 290.423 64.9333 291.959 62.16C293.538 59.344 295.714 57.1893 298.487 55.696C301.303 54.2027 304.503 53.456 308.087 53.456C311.671 53.456 314.85 54.2027 317.623 55.696C320.439 57.1467 322.615 59.2373 324.151 61.968C325.73 64.6987 326.519 67.92 326.519 71.632ZM312.119 68.24C312.119 67.0453 311.735 66.1493 310.967 65.552C310.199 64.912 309.239 64.592 308.087 64.592C305.57 64.592 304.098 65.808 303.671 68.24H312.119ZM349.893 44.688C354.629 44.688 358.767 45.648 362.309 47.568C365.893 49.488 368.645 52.1547 370.565 55.568C372.485 58.9813 373.445 62.864 373.445 67.216C373.445 71.5253 372.485 75.408 370.565 78.864C368.645 82.32 365.893 85.0507 362.309 87.056C358.767 89.0187 354.629 90 349.893 90H331.013V44.688H349.893ZM348.613 77.328C351.813 77.328 354.351 76.4533 356.229 74.704C358.106 72.9547 359.045 70.4587 359.045 67.216C359.045 63.9733 358.106 61.4773 356.229 59.728C354.351 57.9787 351.813 57.104 348.613 57.104H345.221V77.328H348.613Z" fill="black"/>
</svg>
