<svg width="123" height="48" viewBox="0 0 123 48" fill="none" xmlns="http://www.w3.org/2000/svg">
<path d="M16.931 24.858C16.931 23.4568 17.2439 22.2052 17.8697 21.1033C18.509 19.9878 19.3729 19.1239 20.4612 18.5118C21.5631 17.886 22.7943 17.5731 24.1547 17.5731C25.7463 17.5731 27.1407 17.9812 28.3378 18.7974C29.535 19.6137 30.3716 20.7428 30.8478 22.1848H27.5624C27.2359 21.5046 26.7734 20.9945 26.1748 20.6544C25.5899 20.3143 24.9097 20.1442 24.1342 20.1442C23.3044 20.1442 22.563 20.3415 21.91 20.736C21.2706 21.1169 20.7673 21.6611 20.4 22.3685C20.0463 23.0759 19.8694 23.9057 19.8694 24.858C19.8694 25.7966 20.0463 26.6265 20.4 27.3475C20.7673 28.0549 21.2706 28.6058 21.91 29.0003C22.563 29.3813 23.3044 29.5717 24.1342 29.5717C24.9097 29.5717 25.5899 29.4017 26.1748 29.0616C26.7734 28.7079 27.2359 28.1909 27.5624 27.5107H30.8478C30.3716 28.9663 29.535 30.1023 28.3378 30.9185C27.1543 31.7211 25.7599 32.1224 24.1547 32.1224C22.7943 32.1224 21.5631 31.8163 20.4612 31.2042C19.3729 30.5784 18.509 29.7146 17.8697 28.6126C17.2439 27.5107 16.931 26.2592 16.931 24.858ZM43.9601 20.6952V32H41.0829V30.5716C40.7156 31.0613 40.2326 31.449 39.634 31.7347C39.0491 32.0068 38.4097 32.1428 37.7159 32.1428C36.8316 32.1428 36.0494 31.9592 35.3692 31.5919C34.689 31.211 34.1517 30.66 33.7572 29.939C33.3763 29.2044 33.1858 28.3338 33.1858 27.3271V20.6952H36.0426V26.919C36.0426 27.8168 36.2671 28.5106 36.716 29.0003C37.1649 29.4765 37.7771 29.7146 38.5525 29.7146C39.3416 29.7146 39.9605 29.4765 40.4095 29.0003C40.8584 28.5106 41.0829 27.8168 41.0829 26.919V20.6952H43.9601ZM49.6356 16.8997V32H46.7788V16.8997H49.6356ZM55.7843 23.0419V28.5106C55.7843 28.8915 55.8727 29.1704 56.0495 29.3472C56.24 29.5105 56.5529 29.5921 56.9882 29.5921H58.3146V32H56.5189C54.111 32 52.9071 30.8301 52.9071 28.4902V23.0419H51.5603V20.6952H52.9071V17.8996H55.7843V20.6952H58.3146V23.0419H55.7843ZM71.0416 20.6952V32H68.1644V30.5716C67.7971 31.0613 67.3141 31.449 66.7156 31.7347C66.1306 32.0068 65.4912 32.1428 64.7974 32.1428C63.9132 32.1428 63.1309 31.9592 62.4508 31.5919C61.7706 31.211 61.2332 30.66 60.8387 29.939C60.4578 29.2044 60.2673 28.3338 60.2673 27.3271V20.6952H63.1241V26.919C63.1241 27.8168 63.3486 28.5106 63.7975 29.0003C64.2465 29.4765 64.8586 29.7146 65.6341 29.7146C66.4231 29.7146 67.0421 29.4765 67.491 29.0003C67.9399 28.5106 68.1644 27.8168 68.1644 26.919V20.6952H71.0416ZM76.7171 22.4501C77.0844 21.8515 77.5606 21.3822 78.1455 21.0421C78.7441 20.702 79.4243 20.5319 80.1861 20.5319V23.5316H79.4311C78.5332 23.5316 77.853 23.7425 77.3905 24.1642C76.9416 24.5859 76.7171 25.3205 76.7171 26.368V32H73.8603V20.6952H76.7171V22.4501ZM92.6193 26.1027C92.6193 26.5108 92.5921 26.8781 92.5377 27.2046H84.2733C84.3413 28.0209 84.627 28.6603 85.1304 29.1228C85.6337 29.5853 86.2527 29.8166 86.9873 29.8166C88.0484 29.8166 88.8034 29.3609 89.2523 28.4494H92.3336C92.0071 29.5377 91.3813 30.4356 90.4563 31.143C89.5312 31.8368 88.3953 32.1837 87.0485 32.1837C85.9602 32.1837 84.9807 31.9456 84.1101 31.4694C83.253 30.9797 82.5796 30.2927 82.0899 29.4085C81.6138 28.5242 81.3757 27.5039 81.3757 26.3476C81.3757 25.1777 81.6138 24.1506 82.0899 23.2663C82.566 22.3821 83.2326 21.7019 84.0897 21.2257C84.9467 20.7496 85.933 20.5115 87.0485 20.5115C88.1232 20.5115 89.0823 20.7428 89.9257 21.2053C90.7828 21.6679 91.4426 22.3277 91.9051 23.1847C92.3812 24.0281 92.6193 25.0008 92.6193 26.1027ZM89.6604 25.2865C89.6468 24.5519 89.3816 23.9669 88.8646 23.5316C88.3477 23.0827 87.7151 22.8582 86.9669 22.8582C86.2595 22.8582 85.6609 23.0759 85.1712 23.5112C84.695 23.9329 84.4026 24.5247 84.2937 25.2865H89.6604ZM101.316 32.1428C99.9828 32.1428 98.7585 31.83 97.6429 31.2042C96.5274 30.5784 95.6432 29.7146 94.9902 28.6126C94.3372 27.4971 94.0107 26.2388 94.0107 24.8376C94.0107 23.45 94.3372 22.2052 94.9902 21.1033C95.6432 19.9878 96.5274 19.1171 97.6429 18.4914C98.7585 17.8656 99.9828 17.5527 101.316 17.5527C102.663 17.5527 103.887 17.8656 104.989 18.4914C106.105 19.1171 106.982 19.9878 107.621 21.1033C108.274 22.2052 108.601 23.45 108.601 24.8376C108.601 26.2388 108.274 27.4971 107.621 28.6126C106.982 29.7146 106.105 30.5784 104.989 31.2042C103.874 31.83 102.649 32.1428 101.316 32.1428ZM101.316 29.5921C102.173 29.5921 102.928 29.4017 103.581 29.0208C104.234 28.6262 104.744 28.0685 105.111 27.3475C105.479 26.6265 105.662 25.7898 105.662 24.8376C105.662 23.8853 105.479 23.0555 105.111 22.3481C104.744 21.6271 104.234 21.0761 103.581 20.6952C102.928 20.3143 102.173 20.1238 101.316 20.1238C100.459 20.1238 99.6971 20.3143 99.0305 20.6952C98.3775 21.0761 97.8674 21.6271 97.5001 22.3481C97.1328 23.0555 96.9491 23.8853 96.9491 24.8376C96.9491 25.7898 97.1328 26.6265 97.5001 27.3475C97.8674 28.0685 98.3775 28.6262 99.0305 29.0208C99.6971 29.4017 100.459 29.5921 101.316 29.5921ZM115.644 32.1428C114.651 32.1428 113.753 31.9728 112.95 31.6327C112.161 31.2926 111.536 30.8029 111.073 30.1635C110.611 29.5241 110.373 28.7691 110.359 27.8984H113.42C113.461 28.4834 113.665 28.9459 114.032 29.286C114.413 29.6261 114.93 29.7962 115.583 29.7962C116.249 29.7962 116.773 29.6397 117.154 29.3268C117.535 29.0003 117.725 28.5786 117.725 28.0617C117.725 27.64 117.596 27.2931 117.338 27.021C117.079 26.7489 116.753 26.538 116.358 26.3884C115.977 26.2252 115.447 26.0483 114.767 25.8579C113.842 25.5858 113.087 25.3205 112.502 25.062C111.93 24.79 111.434 24.3886 111.012 23.8581C110.604 23.3139 110.4 22.5929 110.4 21.6951C110.4 20.8516 110.611 20.117 111.032 19.4912C111.454 18.8655 112.046 18.3893 112.808 18.0628C113.569 17.7227 114.44 17.5527 115.42 17.5527C116.889 17.5527 118.079 17.9132 118.991 18.6342C119.916 19.3416 120.426 20.3347 120.521 21.6134H117.379C117.351 21.1237 117.14 20.7224 116.746 20.4095C116.365 20.083 115.855 19.9198 115.216 19.9198C114.658 19.9198 114.209 20.0626 113.869 20.3483C113.542 20.634 113.379 21.0489 113.379 21.593C113.379 21.974 113.501 22.2936 113.746 22.5521C114.005 22.797 114.318 23.001 114.685 23.1643C115.066 23.3139 115.596 23.4908 116.277 23.6948C117.202 23.9669 117.957 24.239 118.542 24.5111C119.127 24.7831 119.63 25.1913 120.052 25.7354C120.473 26.2796 120.684 26.9938 120.684 27.878C120.684 28.6398 120.487 29.3472 120.092 30.0002C119.698 30.6532 119.12 31.177 118.358 31.5715C117.596 31.9524 116.692 32.1428 115.644 32.1428Z" fill="#4C4C4C"/>
<mask id="path-2-inside-1_618_479" fill="white">
<path d="M41.2553 7.02943C37.8755 3.67298 33.5694 1.3872 28.8815 0.461153C24.1936 -0.464892 19.3345 0.0103887 14.9186 1.82689C10.5027 3.6434 6.72832 6.71954 4.07284 10.6663C1.41736 14.6131 -7.2172e-07 19.2533 0 24C7.21721e-07 28.7468 1.41736 33.3869 4.07284 37.3337C6.72832 41.2805 10.5027 44.3566 14.9186 46.1731C19.3345 47.9896 24.1936 48.4649 28.8815 47.5388C33.5694 46.6128 37.8755 44.327 41.2553 40.9706L33.9717 33.7373C32.0325 35.6631 29.5618 36.9746 26.872 37.506C24.1822 38.0373 21.3941 37.7646 18.8604 36.7223C16.3267 35.6801 14.1611 33.9151 12.6374 31.6505C11.1138 29.386 10.3005 26.7236 10.3005 24C10.3005 21.2764 11.1138 18.614 12.6374 16.3495C14.1611 14.0849 16.3267 12.3199 18.8604 11.2777C21.3941 10.2354 24.1822 9.96269 26.872 10.494C29.5618 11.0254 32.0325 12.3369 33.9717 14.2627L41.2553 7.02943Z"/>
</mask>
<path d="M41.2553 7.02943C37.8755 3.67298 33.5694 1.3872 28.8815 0.461153C24.1936 -0.464892 19.3345 0.0103887 14.9186 1.82689C10.5027 3.6434 6.72832 6.71954 4.07284 10.6663C1.41736 14.6131 -7.2172e-07 19.2533 0 24C7.21721e-07 28.7468 1.41736 33.3869 4.07284 37.3337C6.72832 41.2805 10.5027 44.3566 14.9186 46.1731C19.3345 47.9896 24.1936 48.4649 28.8815 47.5388C33.5694 46.6128 37.8755 44.327 41.2553 40.9706L33.9717 33.7373C32.0325 35.6631 29.5618 36.9746 26.872 37.506C24.1822 38.0373 21.3941 37.7646 18.8604 36.7223C16.3267 35.6801 14.1611 33.9151 12.6374 31.6505C11.1138 29.386 10.3005 26.7236 10.3005 24C10.3005 21.2764 11.1138 18.614 12.6374 16.3495C14.1611 14.0849 16.3267 12.3199 18.8604 11.2777C21.3941 10.2354 24.1822 9.96269 26.872 10.494C29.5618 11.0254 32.0325 12.3369 33.9717 14.2627L41.2553 7.02943Z" stroke="#A514F4" stroke-width="68.0193" mask="url(#path-2-inside-1_618_479)"/>
</svg>
